<svg xmlns="http://www.w3.org/2000/svg" version="1.1" xmlns:xlink="http://www.w3.org/1999/xlink" xmlns:svgjs="http://svgjs.com/svgjs" width="1280" height="720" preserveAspectRatio="none" viewBox="0 0 1280 720"><g mask="url(&quot;#SvgjsMask1225&quot;)" fill="none"><rect width="1280" height="720" x="0" y="0" fill="url(#SvgjsLinearGradient1226)"></rect><path d="M184.727,175.432C218.363,175.529,256.045,171.708,272.983,142.648C289.998,113.457,277.087,77.299,258.292,49.221C241.799,24.582,214.316,12.703,184.727,10.802C150.468,8.601,111.755,10.002,92.739,38.584C72.225,69.418,76.684,111.407,97.345,142.143C115.982,169.868,151.32,175.336,184.727,175.432" fill="rgba(78, 159, 61, 1)" class="triangle-float2"></path><path d="M1325.439,472.032C1383.498,470.582,1426.924,425.719,1456.341,375.643C1486.253,324.724,1507.947,262.886,1478.303,211.81C1448.739,160.872,1384.332,150.726,1325.439,150.098C1265.055,149.454,1198.423,157.031,1166.817,208.486C1134.147,261.673,1150.515,328.995,1182.703,382.475C1213.747,434.054,1265.257,473.535,1325.439,472.032" fill="rgba(78, 159, 61, 1)" class="triangle-float2"></path><path d="M169.83,507.145C235.317,505.829,292.721,464.388,322.917,406.264C350.908,352.385,343.111,287.864,310.285,236.787C280.082,189.791,225.694,168.464,169.83,168.058C113.129,167.646,57.393,187.638,25.797,234.721C-9.848,287.838,-24.2,356.089,5.699,412.64C37.325,472.458,102.18,508.505,169.83,507.145" fill="rgba(78, 159, 61, 1)" class="triangle-float1"></path><path d="M886.099,101.145C921.211,99.455,950.874,78.841,969.595,49.088C989.869,16.867,1005.2,-23.943,985.179,-56.322C965.749,-87.746,923.044,-86.233,886.099,-85.949C849.882,-85.671,810.113,-84.683,789.62,-54.82C766.838,-21.621,766.231,23.616,787.413,57.858C807.667,90.6,847.644,102.996,886.099,101.145" fill="rgba(78, 159, 61, 1)" class="triangle-float1"></path></g><defs><mask id="SvgjsMask1225"><rect width="1280" height="720" fill="#ffffff"></rect></mask><linearGradient x1="10.94%" y1="-19.44%" x2="89.06%" y2="119.44%" gradientUnits="userSpaceOnUse" id="SvgjsLinearGradient1226"><stop stop-color="#0e2a47" offset="0"></stop><stop stop-color="rgba(25, 26, 25, 1)" offset="0.45"></stop></linearGradient><style>
            @keyframes float1 {
                0%{transform: translate(0, 0)}
                50%{transform: translate(-10px, 0)}
                100%{transform: translate(0, 0)}
            }

            .triangle-float1 {
                animation: float1 5s infinite;
            }

            @keyframes float2 {
                0%{transform: translate(0, 0)}
                50%{transform: translate(-5px, -5px)}
                100%{transform: translate(0, 0)}
            }

            .triangle-float2 {
                animation: float2 4s infinite;
            }

            @keyframes float3 {
                0%{transform: translate(0, 0)}
                50%{transform: translate(0, -10px)}
                100%{transform: translate(0, 0)}
            }

            .triangle-float3 {
                animation: float3 6s infinite;
            }
        </style></defs></svg>