<?xml version="1.0" standalone="no"?><svg xmlns="http://www.w3.org/2000/svg" viewBox="0 0 1440 320"><path fill="#47B5FF" fill-opacity="1" d="M0,96L8.9,85.3C17.8,75,36,53,53,85.3C71.1,117,89,203,107,245.3C124.4,288,142,288,160,293.3C177.8,299,196,309,213,288C231.1,267,249,213,267,181.3C284.4,149,302,139,320,165.3C337.8,192,356,256,373,282.7C391.1,309,409,299,427,293.3C444.4,288,462,288,480,282.7C497.8,277,516,267,533,229.3C551.1,192,569,128,587,96C604.4,64,622,64,640,69.3C657.8,75,676,85,693,117.3C711.1,149,729,203,747,224C764.4,245,782,235,800,208C817.8,181,836,139,853,112C871.1,85,889,75,907,64C924.4,53,942,43,960,69.3C977.8,96,996,160,1013,181.3C1031.1,203,1049,181,1067,192C1084.4,203,1102,245,1120,229.3C1137.8,213,1156,139,1173,128C1191.1,117,1209,171,1227,186.7C1244.4,203,1262,181,1280,197.3C1297.8,213,1316,267,1333,240C1351.1,213,1369,107,1387,80C1404.4,53,1422,107,1431,133.3L1440,160L1440,320L1431.1,320C1422.2,320,1404,320,1387,320C1368.9,320,1351,320,1333,320C1315.6,320,1298,320,1280,320C1262.2,320,1244,320,1227,320C1208.9,320,1191,320,1173,320C1155.6,320,1138,320,1120,320C1102.2,320,1084,320,1067,320C1048.9,320,1031,320,1013,320C995.6,320,978,320,960,320C942.2,320,924,320,907,320C888.9,320,871,320,853,320C835.6,320,818,320,800,320C782.2,320,764,320,747,320C728.9,320,711,320,693,320C675.6,320,658,320,640,320C622.2,320,604,320,587,320C568.9,320,551,320,533,320C515.6,320,498,320,480,320C462.2,320,444,320,427,320C408.9,320,391,320,373,320C355.6,320,338,320,320,320C302.2,320,284,320,267,320C248.9,320,231,320,213,320C195.6,320,178,320,160,320C142.2,320,124,320,107,320C88.9,320,71,320,53,320C35.6,320,18,320,9,320L0,320Z"></path></svg>