<?xml version="1.0" standalone="no"?><svg xmlns="http://www.w3.org/2000/svg" viewBox="0 0 1440 320"><path fill="#47B5FF" fill-opacity="1" d="M0,96L8.9,85.3C17.8,75,36,53,53,85.3C71.1,117,89,203,107,245.3C124.4,288,142,288,160,293.3C177.8,299,196,309,213,288C231.1,267,249,213,267,181.3C284.4,149,302,139,320,165.3C337.8,192,356,256,373,282.7C391.1,309,409,299,427,293.3C444.4,288,462,288,480,282.7C497.8,277,516,267,533,229.3C551.1,192,569,128,587,96C604.4,64,622,64,640,69.3C657.8,75,676,85,693,117.3C711.1,149,729,203,747,224C764.4,245,782,235,800,208C817.8,181,836,139,853,112C871.1,85,889,75,907,64C924.4,53,942,43,960,69.3C977.8,96,996,160,1013,181.3C1031.1,203,1049,181,1067,192C1084.4,203,1102,245,1120,229.3C1137.8,213,1156,139,1173,128C1191.1,117,1209,171,1227,186.7C1244.4,203,1262,181,1280,197.3C1297.8,213,1316,267,1333,240C1351.1,213,1369,107,1387,80C1404.4,53,1422,107,1431,133.3L1440,160L1440,0L1431.1,0C1422.2,0,1404,0,1387,0C1368.9,0,1351,0,1333,0C1315.6,0,1298,0,1280,0C1262.2,0,1244,0,1227,0C1208.9,0,1191,0,1173,0C1155.6,0,1138,0,1120,0C1102.2,0,1084,0,1067,0C1048.9,0,1031,0,1013,0C995.6,0,978,0,960,0C942.2,0,924,0,907,0C888.9,0,871,0,853,0C835.6,0,818,0,800,0C782.2,0,764,0,747,0C728.9,0,711,0,693,0C675.6,0,658,0,640,0C622.2,0,604,0,587,0C568.9,0,551,0,533,0C515.6,0,498,0,480,0C462.2,0,444,0,427,0C408.9,0,391,0,373,0C355.6,0,338,0,320,0C302.2,0,284,0,267,0C248.9,0,231,0,213,0C195.6,0,178,0,160,0C142.2,0,124,0,107,0C88.9,0,71,0,53,0C35.6,0,18,0,9,0L0,0Z"></path></svg>