<?xml version="1.0" encoding="utf-8"?>
<!-- Generator: Adobe Illustrator 25.2.1, SVG Export Plug-In . SVG Version: 6.00 Build 0)  -->
<svg version="1.1" id="Capa_1" xmlns="http://www.w3.org/2000/svg" xmlns:xlink="http://www.w3.org/1999/xlink" x="0px" y="0px"
	 viewBox="0 0 649.31 341.67" style="enable-background:new 0 0 649.31 341.67;" xml:space="preserve">
<style type="text/css">
	.st0{fill:#010202;}
</style>
<g>
	<path class="st0" d="M169.88,62.1v45.42h-2.17c-1.7-24.8-6.2-43.56-36.89-43.56h-6.67v48.98h4.96
		c13.95-0.16,19.38-8.53,20.77-22.79c0.31,0,2.17,0,2.17,0v48.67c0,0-1.86,0-2.17,0c-1.39-14.11-6.82-22.48-20.77-22.63h-4.96v32.09
		c0,11.94,1.4,20.46,16.12,20.46v1.86H76.1v-1.86c14.73,0,16.12-8.52,16.12-20.46V84.42c0-11.93-1.39-20.46-16.12-20.46V62.1H169.88
		z"/>
	<path class="st0" d="M283.97,116.04c0,30.23-23.72,56.27-53.94,56.27s-53.94-26.04-53.94-56.27c0-30.07,23.72-55.65,53.94-55.65
		S283.97,85.97,283.97,116.04z M250.17,116.04c0-31.78-1.4-53.94-20.15-53.94s-20.15,22.17-20.15,53.94
		c0,31.93,1.4,54.56,20.15,54.56S250.17,147.97,250.17,116.04z"/>
	<path class="st0" d="M419.9,300.1v1.86h-59.06v-1.86c4.96,0,10.85-3.72,6.05-11.01l-27.13-39.84l-3.1,3.1v27.28
		c0,11.94,1.39,20.46,15.96,20.46v1.86h-64.02v-1.86c14.73,0,16.12-8.52,16.12-20.46l-0.14-196.4c0-11.93-1.4-20.46-16.12-20.46
		v-1.86h64.02v1.86c-14.57,0-15.96,8.53-15.96,20.46l0.14,164.78l27.9-27.59c12.4-12.87,12.25-25.11-2.79-25.11
		c0-0.31,0-1.86,0-1.86h46.97c0,0,0,1.55,0,1.86c-13.33,1.86-24.02,8.22-42.78,27.75l-5.11,5.27l44.49,65.1
		C409.05,298.7,410.76,300.1,419.9,300.1z"/>
	<path class="st0" d="M470.28,215.78v63.86c0,11.94,1.4,20.46,15.97,20.46v1.86h-64.02v-1.86c14.73,0,16.12-8.52,16.12-20.46v-63.86
		c0-11.93-1.39-20.46-16.12-20.46v-1.86h64.02v1.86C471.67,195.31,470.28,203.84,470.28,215.78z"/>
	<path class="st0" d="M603.74,193.45v1.71c-13.95,0-16.12,7.75-16.28,18.6v60.45c-0.15,11.63-5.74,29.45-38.44,29.45
		c-32.71,0-42.78-15.19-42.78-29.45v-58.59c0-11.93-1.55-20.46-16.12-20.46v-1.71h64.02v1.71c-14.73,0-16.12,8.53-16.12,20.46v58.59
		c0,13.33,3.1,24.18,21.7,24.18c18.45,0,24.34-12.87,24.65-24.18v-60.45c-0.31-10.85-2.32-18.6-16.28-18.6v-1.71H603.74z"/>
	<path class="st0" d="M60.65,189.04v98.01h94.76v-98.01H60.65z M108.59,258.21c7.08,0,11.4-4.06,13.04-11.23h12
		c-2.42,13.04-11.4,21.67-24.7,21.67c-15.03,0-26.51-10.28-26.51-29.96c0-19.43,10.28-31.26,26.68-31.26
		c14.33,0,23.4,9.15,24.52,20.72h-12c-1.64-6.48-6.74-10.36-12.43-10.36c-9.93,0-14.59,7.69-14.59,20.21
		C94.6,250.69,99.26,258.21,108.59,258.21z"/>
	<g>
		<path class="st0" d="M221.86,218.05c-10.1,0-15.72,7.17-15.72,20.72c0,13.56,5.79,19.6,15.72,19.6c8.63,0,15.54-6.05,15.54-19.6
			C237.4,225.22,231.87,218.05,221.86,218.05z"/>
		<path class="st0" d="M174.39,189.04v98.01h94.76v-98.01H174.39z M221.86,268.66c-17.62,0-27.55-10.79-27.55-30.14
			c0-19.43,9.93-31.09,27.55-31.09c17.62,0,27.37,11.66,27.37,31.35C249.23,258.47,239.47,268.66,221.86,268.66z"/>
	</g>
	<g>
		<path class="st0" d="M418.9,105.59H410v37.65h9.93c10.45,0,14.94-6.56,14.94-19.52S430.38,105.59,418.9,105.59z"/>
		<path class="st0" d="M375.36,75.33v98.01h94.76V75.33H375.36z M422.35,153h-24.01V95.66h22.19c15.54,0,26.6,10.62,26.6,28.06
			C447.14,141.17,437.21,153,422.35,153z"/>
	</g>
	<path class="st0" d="M489.62,75.69v98.01h94.76V75.69H489.62z M558.76,153.36h-43.52V96.02h42.14v10.02H526.9v12.26h28.06v10.1
		H526.9v14.77h31.86V153.36z"/>
</g>
</svg>
